<?xml version="1.0" encoding="UTF-8" standalone="no"?>
<!DOCTYPE svg PUBLIC "-//W3C//DTD SVG 1.1//EN" "http://www.w3.org/Graphics/SVG/1.1/DTD/svg11.dtd">
<svg width="100%" height="100%" viewBox="0 0 250 163" version="1.1" xmlns="http://www.w3.org/2000/svg" style="fill-rule:evenodd;clip-rule:evenodd;stroke-linejoin:round;stroke-miterlimit:2;">
    <g id="Logo" transform="matrix(1.10127,0,0,1.21024,-150.447,-227.735)">
        <g transform="matrix(4.73526,0,0,4.73526,-408.133,-608.191)">
            <path d="M138.434,170.687C138.434,172.079 137.982,173.535 137.078,175.055C136.174,176.575 134.926,177.899 133.334,179.027C131.742,180.155 130.098,180.863 128.402,181.151C127.426,183.119 126.722,184.495 126.29,185.279L125.786,186.095C128.954,186.879 131.578,188.071 133.658,189.671C134.714,190.487 135.426,191.487 135.794,192.671C135.986,193.279 136.082,193.799 136.082,194.231C136.082,194.663 135.998,195.027 135.83,195.323C135.662,195.619 135.466,195.823 135.242,195.935C135.018,196.047 134.858,196.103 134.762,196.103C134.666,196.103 134.618,196.063 134.618,195.983C134.618,195.903 134.71,195.667 134.894,195.275C135.078,194.883 135.17,194.423 135.17,193.895C135.17,193.367 135.058,192.783 134.834,192.143C134.61,191.503 134.194,190.915 133.586,190.379C132.978,189.843 132.134,189.339 131.054,188.867C129.974,188.395 129.038,188.059 128.246,187.859C127.454,187.659 126.394,187.431 125.066,187.175C123.706,189.079 122.29,190.383 120.818,191.087C119.938,191.519 119.158,191.735 118.478,191.735C117.798,191.735 117.194,191.599 116.666,191.327C115.754,190.879 115.298,190.199 115.298,189.287C115.298,188.375 115.898,187.575 117.098,186.887C118.458,186.087 120.298,185.687 122.618,185.687C123.45,185.687 124.202,185.751 124.874,185.879C125.594,184.759 126.434,183.215 127.394,181.247L127.13,181.247C126.122,181.247 125.186,181.079 124.322,180.743C123.458,180.407 122.77,179.951 122.258,179.375C121.586,178.623 121.25,177.775 121.25,176.831C121.25,176.335 121.374,175.799 121.622,175.223C121.87,174.647 122.422,174.063 123.278,173.471C124.134,172.879 125.218,172.431 126.53,172.127C126.738,172.079 126.914,172.055 127.058,172.055C127.202,172.055 127.29,172.095 127.322,172.175C127.354,172.255 127.29,172.327 127.13,172.391C126.97,172.455 126.786,172.503 126.578,172.535C125.89,172.615 125.25,172.847 124.658,173.231C123.634,173.887 122.922,174.895 122.522,176.255C122.426,176.575 122.378,176.883 122.378,177.179C122.378,177.475 122.434,177.831 122.546,178.247C122.658,178.663 122.898,179.091 123.266,179.531C123.634,179.971 124.134,180.279 124.766,180.455C125.398,180.631 125.95,180.719 126.422,180.719C126.894,180.719 127.33,180.695 127.73,180.647L129.77,175.511C131.178,171.895 132.858,169.671 134.81,168.839C135.322,168.631 135.822,168.527 136.31,168.527C136.798,168.527 137.262,168.683 137.702,168.995C138.142,169.307 138.378,169.687 138.41,170.135C138.426,170.327 138.434,170.511 138.434,170.687ZM137.426,170.711C137.426,170.103 137.146,169.799 136.586,169.799C135.77,169.799 134.778,170.511 133.61,171.935C132.698,173.071 131.822,174.443 130.982,176.051C130.142,177.659 129.394,179.143 128.738,180.503C130.962,180.007 132.966,178.787 134.75,176.843C136.534,174.899 137.426,172.855 137.426,170.711ZM124.13,187.031C123.346,186.855 122.538,186.767 121.706,186.767C120.874,186.767 120.018,186.887 119.138,187.127C117.298,187.607 116.218,188.287 115.898,189.167C115.834,189.327 115.802,189.479 115.802,189.623C115.802,190.039 116.03,190.379 116.486,190.643C116.942,190.907 117.442,191.039 117.986,191.039C118.738,191.039 119.554,190.831 120.434,190.415C121.762,189.775 122.994,188.647 124.13,187.031Z" style="fill:rgb(54,62,63);fill-rule:nonzero;"/>
        </g>
        <g transform="matrix(4.73526,0,0,4.73526,-413.133,-608.191)">
            <path d="M141.17,182.423C140.882,182.711 140.474,183.363 139.946,184.379C139.418,185.395 139.102,186.155 138.998,186.659C138.894,187.163 138.842,187.571 138.842,187.883C138.842,188.195 138.962,188.351 139.202,188.351C139.506,188.351 139.882,188.071 140.33,187.511C140.986,186.695 141.634,185.631 142.274,184.319C142.338,184.175 142.41,184.095 142.49,184.079C142.618,184.031 142.682,184.079 142.682,184.223C142.682,184.303 142.658,184.399 142.61,184.511C141.138,187.487 139.898,188.975 138.89,188.975C138.426,188.975 138.05,188.751 137.762,188.303C137.618,188.063 137.546,187.743 137.546,187.343C137.546,186.943 137.626,186.455 137.786,185.879C136.506,187.943 135.402,188.975 134.474,188.975C134.218,188.975 133.986,188.895 133.778,188.735C133.298,188.399 133.058,187.823 133.058,187.007C133.058,185.439 133.738,183.847 135.098,182.231C135.866,181.335 136.81,180.751 137.93,180.479C138.234,180.399 138.522,180.359 138.794,180.359C139.53,180.359 140.154,180.615 140.666,181.127C140.826,181.303 140.874,181.471 140.81,181.631C140.746,181.791 140.61,181.855 140.402,181.823C140.226,181.247 139.842,180.959 139.25,180.959C138.562,180.959 137.714,181.503 136.706,182.591C136.13,183.231 135.594,183.983 135.098,184.847C134.474,185.887 134.162,186.719 134.162,187.343C134.162,187.967 134.362,188.279 134.762,188.279C135.722,188.279 136.978,186.807 138.53,183.863C138.834,183.271 139.09,182.867 139.298,182.651C139.506,182.435 139.77,182.327 140.09,182.327C140.154,182.327 140.318,182.351 140.582,182.399C140.846,182.447 141.042,182.455 141.17,182.423ZM137.906,179.471C137.89,179.471 137.862,179.459 137.822,179.435C137.782,179.411 137.762,179.371 137.762,179.315C137.762,179.259 137.778,179.207 137.81,179.159C137.842,179.111 138.07,178.927 138.494,178.607C138.918,178.287 139.378,177.955 139.874,177.611C140.37,177.267 140.73,177.011 140.954,176.843C141.178,176.675 141.398,176.591 141.614,176.591C141.83,176.591 142.022,176.631 142.19,176.711C142.358,176.791 142.442,176.891 142.442,177.011C142.442,177.131 142.418,177.239 142.37,177.335C142.29,177.527 141.57,177.931 140.21,178.547C138.85,179.163 138.082,179.471 137.906,179.471Z" style="fill:rgb(54,62,63);fill-rule:nonzero;"/>
        </g>
        <g transform="matrix(4.73526,0,0,4.73526,-413.133,-608.191)">
            <path d="M145.562,179.591C145.338,179.783 145.09,179.879 144.818,179.879C144.546,179.879 144.33,179.783 144.17,179.591C144.01,179.399 143.946,179.167 143.978,178.895C144.026,178.623 144.162,178.391 144.386,178.199C144.61,178.007 144.858,177.911 145.13,177.911C145.402,177.911 145.622,178.007 145.79,178.199C145.958,178.391 146.018,178.623 145.97,178.895C145.922,179.167 145.786,179.399 145.562,179.591ZM143.21,188.399C143.514,188.399 143.834,188.247 144.17,187.943C144.762,187.351 145.514,186.143 146.426,184.319C146.538,184.079 146.65,184.007 146.762,184.103C146.794,184.135 146.81,184.187 146.81,184.259C146.81,184.331 146.746,184.507 146.618,184.787C146.49,185.067 146.374,185.319 146.27,185.543C146.166,185.767 145.966,186.131 145.67,186.635C145.374,187.139 145.106,187.527 144.866,187.799C144.21,188.551 143.59,188.927 143.006,188.927C142.422,188.927 142.002,188.751 141.746,188.399C141.49,188.047 141.362,187.655 141.362,187.223C141.362,186.791 141.466,186.319 141.674,185.807L143.21,181.895C143.242,181.799 143.258,181.671 143.258,181.511C143.258,181.351 143.162,181.143 142.97,180.887L144.29,180.863C144.658,180.863 144.874,180.931 144.938,181.067C145.002,181.203 144.954,181.415 144.794,181.703L142.874,186.191C142.602,186.783 142.466,187.287 142.466,187.703C142.466,188.167 142.714,188.399 143.21,188.399Z" style="fill:rgb(54,62,63);fill-rule:nonzero;"/>
        </g>
        <g transform="matrix(4.73526,0,0,4.73526,-408.133,-608.191)">
            <path d="M155.666,179.903C154.674,181.055 153.742,182.015 152.87,182.783C151.998,183.551 151.378,184.091 151.01,184.403C150.642,184.715 150.134,185.135 149.486,185.663C148.838,186.191 148.498,186.471 148.466,186.503C150.29,187.415 151.394,187.871 151.778,187.871C152.162,187.871 152.554,187.735 152.954,187.463C153.354,187.191 153.69,186.903 153.962,186.599C154.234,186.295 154.402,186.135 154.466,186.119L154.634,186.263L154.634,186.359C153.066,188.263 151.802,189.215 150.842,189.215C150.506,189.215 150.022,189.079 149.39,188.807C148.758,188.535 148.23,188.303 147.806,188.111C147.382,187.919 147.146,187.815 147.098,187.799L145.418,189.119L145.106,188.927C145.122,188.847 145.498,188.403 146.234,187.595C146.97,186.787 147.378,186.367 147.458,186.335C147.698,186.303 147.874,186.311 147.986,186.359C152.978,181.911 155.474,178.759 155.474,176.903C155.474,176.199 155.074,175.847 154.274,175.847C153.474,175.847 152.71,176.235 151.982,177.011C151.254,177.787 150.714,178.639 150.362,179.567L150.266,179.663L149.978,179.663L149.93,179.519C150.346,178.351 151.01,177.323 151.922,176.435C152.834,175.547 153.85,175.103 154.97,175.103C155.61,175.103 156.134,175.279 156.542,175.631C156.95,175.983 157.154,176.495 157.154,177.167C157.154,177.839 156.658,178.751 155.666,179.903Z" style="fill:rgb(54,62,63);fill-rule:nonzero;"/>
        </g>
        <g transform="matrix(4.73526,0,0,4.73526,-418.133,-608.191)">
            <path d="M161.402,179.303C161.402,180.023 160.946,180.703 160.034,181.343C160.354,181.359 160.782,181.367 161.318,181.367C161.854,181.367 162.53,181.327 163.346,181.247C163.378,181.295 163.394,181.423 163.394,181.631C163.394,181.839 163.298,182.147 163.106,182.555C162.914,182.963 162.742,183.315 162.59,183.611C162.438,183.907 162.294,184.187 162.158,184.451C162.022,184.715 161.87,185.039 161.702,185.423C161.534,185.807 161.394,186.159 161.282,186.479C160.882,187.695 160.946,188.303 161.474,188.303C162.146,188.303 163.138,186.967 164.45,184.295C164.562,184.087 164.654,184.007 164.726,184.055C164.798,184.103 164.834,184.163 164.834,184.235C164.834,184.307 164.73,184.555 164.522,184.979C164.314,185.403 164.09,185.839 163.85,186.287C163.61,186.735 163.234,187.255 162.722,187.847C162.114,188.583 161.53,188.951 160.97,188.951C160.346,188.951 159.914,188.575 159.674,187.823C159.626,187.679 159.602,187.463 159.602,187.175C159.602,186.887 159.694,186.503 159.878,186.023C160.062,185.543 160.354,184.959 160.754,184.271C161.154,183.583 161.378,183.179 161.426,183.059C161.474,182.939 161.498,182.823 161.498,182.711C161.498,182.215 160.858,181.951 159.578,181.919L159.29,182.687C158.282,185.327 157.314,187.095 156.386,187.991C156.226,188.135 156.146,188.087 156.146,187.847C156.146,187.799 156.162,187.743 156.194,187.679C157.09,186.495 157.866,185.095 158.522,183.479C159.178,181.863 159.634,180.327 159.89,178.871C159.986,178.375 160.21,178.127 160.562,178.127C160.914,178.127 161.17,178.351 161.33,178.799C161.378,178.943 161.402,179.111 161.402,179.303Z" style="fill:rgb(54,62,63);fill-rule:nonzero;"/>
        </g>
    </g>
</svg>
